%TF.GenerationSoftware,KiCad,Pcbnew,(6.0.2)*%
%TF.CreationDate,2022-05-23T22:39:05-07:00*%
%TF.ProjectId,Compaq_Portable_III_Battery,436f6d70-6171-45f5-906f-727461626c65,rev?*%
%TF.SameCoordinates,Original*%
%TF.FileFunction,Copper,L1,Top*%
%TF.FilePolarity,Positive*%
%FSLAX46Y46*%
G04 Gerber Fmt 4.6, Leading zero omitted, Abs format (unit mm)*
G04 Created by KiCad (PCBNEW (6.0.2)) date 2022-05-23 22:39:05*
%MOMM*%
%LPD*%
G01*
G04 APERTURE LIST*
%TA.AperFunction,ComponentPad*%
%ADD10C,1.524000*%
%TD*%
%TA.AperFunction,ComponentPad*%
%ADD11R,1.524000X1.524000*%
%TD*%
%TA.AperFunction,SMDPad,CuDef*%
%ADD12R,3.000000X3.500000*%
%TD*%
%TA.AperFunction,ViaPad*%
%ADD13C,0.800000*%
%TD*%
%TA.AperFunction,Conductor*%
%ADD14C,1.500000*%
%TD*%
%TA.AperFunction,Conductor*%
%ADD15C,0.250000*%
%TD*%
G04 APERTURE END LIST*
D10*
%TO.P,J2,1,Pin_1*%
%TO.N,GND*%
X133350000Y-77470000D03*
%TD*%
D11*
%TO.P,J1,1,Pin_1*%
%TO.N,VMEM*%
X107950000Y-77470000D03*
%TD*%
%TO.P,J4,1,Pin_1*%
%TO.N,VMEM*%
X133350000Y-105410000D03*
%TD*%
D10*
%TO.P,J3,1,Pin_1*%
%TO.N,GND*%
X107950000Y-105410000D03*
%TD*%
D12*
%TO.P,BT1,1,+*%
%TO.N,VMEM*%
X103550000Y-91440000D03*
%TO.P,BT1,2,-*%
%TO.N,GND*%
X137750000Y-91440000D03*
%TD*%
D13*
%TO.N,GND*%
X115570000Y-100330000D03*
X113030000Y-97790000D03*
X113030000Y-100330000D03*
X115570000Y-97790000D03*
%TD*%
D14*
%TO.N,VMEM*%
X114300000Y-105410000D02*
X133350000Y-105410000D01*
X107950000Y-99060000D02*
X114300000Y-105410000D01*
X107950000Y-91440000D02*
X107950000Y-99060000D01*
D15*
%TO.N,GND*%
X115570000Y-97790000D02*
X113030000Y-97790000D01*
X121920000Y-91440000D02*
X137750000Y-91440000D01*
X113030000Y-100330000D02*
X121920000Y-91440000D01*
D14*
%TO.N,VMEM*%
X107950000Y-91440000D02*
X103550000Y-91440000D01*
X107950000Y-77470000D02*
X107950000Y-91440000D01*
D15*
%TO.N,GND*%
X133350000Y-77470000D02*
X137750000Y-81870000D01*
X137750000Y-81870000D02*
X137750000Y-91440000D01*
%TD*%
%TA.AperFunction,Conductor*%
%TO.N,GND*%
G36*
X132174377Y-76728002D02*
G01*
X132220870Y-76781658D01*
X132230974Y-76851932D01*
X132220451Y-76887250D01*
X132154355Y-77028993D01*
X132150609Y-77039285D01*
X132095941Y-77243309D01*
X132094038Y-77254104D01*
X132075628Y-77464525D01*
X132075628Y-77475475D01*
X132094038Y-77685896D01*
X132095941Y-77696691D01*
X132150609Y-77900715D01*
X132154355Y-77911007D01*
X132243623Y-78102441D01*
X132249103Y-78111932D01*
X132279794Y-78155765D01*
X132290271Y-78164140D01*
X132303718Y-78157072D01*
X133260905Y-77199885D01*
X133323217Y-77165859D01*
X133394032Y-77170924D01*
X133439095Y-77199885D01*
X134397003Y-78157793D01*
X134408777Y-78164223D01*
X134420793Y-78154926D01*
X134450897Y-78111932D01*
X134456377Y-78102441D01*
X134545645Y-77911007D01*
X134549391Y-77900715D01*
X134604059Y-77696691D01*
X134605962Y-77685896D01*
X134624372Y-77475475D01*
X134624372Y-77464525D01*
X134605962Y-77254104D01*
X134604059Y-77243309D01*
X134549391Y-77039285D01*
X134545645Y-77028993D01*
X134479549Y-76887250D01*
X134468888Y-76817058D01*
X134497868Y-76752246D01*
X134557288Y-76713389D01*
X134593744Y-76708000D01*
X138380672Y-76708000D01*
X138400057Y-76709500D01*
X138414858Y-76711805D01*
X138414861Y-76711805D01*
X138423730Y-76713186D01*
X138434728Y-76711748D01*
X138463411Y-76711291D01*
X138566307Y-76721425D01*
X138590531Y-76726244D01*
X138709733Y-76762404D01*
X138732553Y-76771856D01*
X138842400Y-76830570D01*
X138862938Y-76844293D01*
X138959223Y-76923312D01*
X138976688Y-76940777D01*
X139055707Y-77037062D01*
X139069430Y-77057600D01*
X139128144Y-77167447D01*
X139137596Y-77190267D01*
X139173756Y-77309469D01*
X139178575Y-77333695D01*
X139188044Y-77429834D01*
X139187592Y-77445876D01*
X139188305Y-77445885D01*
X139188195Y-77454858D01*
X139186814Y-77463730D01*
X139187978Y-77472632D01*
X139187978Y-77472635D01*
X139190936Y-77495251D01*
X139192000Y-77511589D01*
X139192000Y-89056000D01*
X139171998Y-89124121D01*
X139118342Y-89170614D01*
X139066000Y-89182000D01*
X138022115Y-89182000D01*
X138006876Y-89186475D01*
X138005671Y-89187865D01*
X138004000Y-89195548D01*
X138004000Y-93679884D01*
X138008475Y-93695123D01*
X138009865Y-93696328D01*
X138017548Y-93697999D01*
X139066000Y-93697999D01*
X139134121Y-93718001D01*
X139180614Y-93771657D01*
X139192000Y-93823999D01*
X139192000Y-105360672D01*
X139190500Y-105380056D01*
X139186814Y-105403730D01*
X139188252Y-105414728D01*
X139188709Y-105443412D01*
X139178575Y-105546305D01*
X139173756Y-105570531D01*
X139137596Y-105689733D01*
X139128144Y-105712553D01*
X139069430Y-105822400D01*
X139055707Y-105842938D01*
X138976688Y-105939223D01*
X138959223Y-105956688D01*
X138862938Y-106035707D01*
X138842400Y-106049430D01*
X138732553Y-106108144D01*
X138709733Y-106117596D01*
X138590531Y-106153756D01*
X138566307Y-106158575D01*
X138470163Y-106168044D01*
X138454124Y-106167592D01*
X138454115Y-106168305D01*
X138445142Y-106168195D01*
X138436270Y-106166814D01*
X138427368Y-106167978D01*
X138427365Y-106167978D01*
X138404749Y-106170936D01*
X138388411Y-106172000D01*
X134746500Y-106172000D01*
X134678379Y-106151998D01*
X134631886Y-106098342D01*
X134620500Y-106046000D01*
X134620500Y-104599866D01*
X134613745Y-104537684D01*
X134562615Y-104401295D01*
X134475261Y-104284739D01*
X134358705Y-104197385D01*
X134222316Y-104146255D01*
X134160134Y-104139500D01*
X132539866Y-104139500D01*
X132536469Y-104139869D01*
X132485534Y-104145402D01*
X132485532Y-104145402D01*
X132477684Y-104146255D01*
X132472149Y-104148330D01*
X132445117Y-104151500D01*
X114873477Y-104151500D01*
X114805356Y-104131498D01*
X114784382Y-104114595D01*
X109245405Y-98575617D01*
X109211379Y-98513305D01*
X109208500Y-98486522D01*
X109208500Y-93234669D01*
X135742001Y-93234669D01*
X135742371Y-93241490D01*
X135747895Y-93292352D01*
X135751521Y-93307604D01*
X135796676Y-93428054D01*
X135805214Y-93443649D01*
X135881715Y-93545724D01*
X135894276Y-93558285D01*
X135996351Y-93634786D01*
X136011946Y-93643324D01*
X136132394Y-93688478D01*
X136147649Y-93692105D01*
X136198514Y-93697631D01*
X136205328Y-93698000D01*
X137477885Y-93698000D01*
X137493124Y-93693525D01*
X137494329Y-93692135D01*
X137496000Y-93684452D01*
X137496000Y-91712115D01*
X137491525Y-91696876D01*
X137490135Y-91695671D01*
X137482452Y-91694000D01*
X135760116Y-91694000D01*
X135744877Y-91698475D01*
X135743672Y-91699865D01*
X135742001Y-91707548D01*
X135742001Y-93234669D01*
X109208500Y-93234669D01*
X109208500Y-91481346D01*
X109208709Y-91474093D01*
X109212640Y-91405912D01*
X109212963Y-91400310D01*
X109212289Y-91394743D01*
X109212289Y-91394732D01*
X109209413Y-91370965D01*
X109208500Y-91355828D01*
X109208500Y-91167885D01*
X135742000Y-91167885D01*
X135746475Y-91183124D01*
X135747865Y-91184329D01*
X135755548Y-91186000D01*
X137477885Y-91186000D01*
X137493124Y-91181525D01*
X137494329Y-91180135D01*
X137496000Y-91172452D01*
X137496000Y-89200116D01*
X137491525Y-89184877D01*
X137490135Y-89183672D01*
X137482452Y-89182001D01*
X136205331Y-89182001D01*
X136198510Y-89182371D01*
X136147648Y-89187895D01*
X136132396Y-89191521D01*
X136011946Y-89236676D01*
X135996351Y-89245214D01*
X135894276Y-89321715D01*
X135881715Y-89334276D01*
X135805214Y-89436351D01*
X135796676Y-89451946D01*
X135751522Y-89572394D01*
X135747895Y-89587649D01*
X135742369Y-89638514D01*
X135742000Y-89645328D01*
X135742000Y-91167885D01*
X109208500Y-91167885D01*
X109208500Y-78528777D01*
X132655777Y-78528777D01*
X132665074Y-78540793D01*
X132708069Y-78570898D01*
X132717555Y-78576376D01*
X132908993Y-78665645D01*
X132919285Y-78669391D01*
X133123309Y-78724059D01*
X133134104Y-78725962D01*
X133344525Y-78744372D01*
X133355475Y-78744372D01*
X133565896Y-78725962D01*
X133576691Y-78724059D01*
X133780715Y-78669391D01*
X133791007Y-78665645D01*
X133982445Y-78576376D01*
X133991931Y-78570898D01*
X134035764Y-78540207D01*
X134044139Y-78529729D01*
X134037071Y-78516281D01*
X133362812Y-77842022D01*
X133348868Y-77834408D01*
X133347035Y-77834539D01*
X133340420Y-77838790D01*
X132662207Y-78517003D01*
X132655777Y-78528777D01*
X109208500Y-78528777D01*
X109208500Y-78374883D01*
X109211670Y-78347851D01*
X109213745Y-78342316D01*
X109220500Y-78280134D01*
X109220500Y-76834000D01*
X109240502Y-76765879D01*
X109294158Y-76719386D01*
X109346500Y-76708000D01*
X132106256Y-76708000D01*
X132174377Y-76728002D01*
G37*
%TD.AperFunction*%
%TD*%
M02*
