%TF.GenerationSoftware,KiCad,Pcbnew,(6.0.2)*%
%TF.CreationDate,2022-05-23T22:39:05-07:00*%
%TF.ProjectId,Compaq_Portable_III_Battery,436f6d70-6171-45f5-906f-727461626c65,rev?*%
%TF.SameCoordinates,Original*%
%TF.FileFunction,Copper,L2,Bot*%
%TF.FilePolarity,Positive*%
%FSLAX46Y46*%
G04 Gerber Fmt 4.6, Leading zero omitted, Abs format (unit mm)*
G04 Created by KiCad (PCBNEW (6.0.2)) date 2022-05-23 22:39:05*
%MOMM*%
%LPD*%
G01*
G04 APERTURE LIST*
%TA.AperFunction,ComponentPad*%
%ADD10C,1.524000*%
%TD*%
%TA.AperFunction,ComponentPad*%
%ADD11R,1.524000X1.524000*%
%TD*%
%TA.AperFunction,ViaPad*%
%ADD12C,0.800000*%
%TD*%
%TA.AperFunction,Conductor*%
%ADD13C,0.250000*%
%TD*%
G04 APERTURE END LIST*
D10*
%TO.P,J2,1,Pin_1*%
%TO.N,GND*%
X133350000Y-77470000D03*
%TD*%
D11*
%TO.P,J1,1,Pin_1*%
%TO.N,VMEM*%
X107950000Y-77470000D03*
%TD*%
%TO.P,J4,1,Pin_1*%
%TO.N,VMEM*%
X133350000Y-105410000D03*
%TD*%
D10*
%TO.P,J3,1,Pin_1*%
%TO.N,GND*%
X107950000Y-105410000D03*
%TD*%
D12*
%TO.N,GND*%
X115570000Y-100330000D03*
X113030000Y-97790000D03*
X113030000Y-100330000D03*
X115570000Y-97790000D03*
%TD*%
D13*
%TO.N,GND*%
X115570000Y-97790000D02*
X115570000Y-100330000D01*
X107950000Y-105410000D02*
X113030000Y-100330000D01*
%TD*%
%TA.AperFunction,Conductor*%
%TO.N,GND*%
G36*
X106621621Y-76728002D02*
G01*
X106668114Y-76781658D01*
X106679500Y-76834000D01*
X106679500Y-78280134D01*
X106686255Y-78342316D01*
X106737385Y-78478705D01*
X106824739Y-78595261D01*
X106941295Y-78682615D01*
X107077684Y-78733745D01*
X107139866Y-78740500D01*
X108760134Y-78740500D01*
X108822316Y-78733745D01*
X108958705Y-78682615D01*
X109075261Y-78595261D01*
X109125088Y-78528777D01*
X132655777Y-78528777D01*
X132665074Y-78540793D01*
X132708069Y-78570898D01*
X132717555Y-78576376D01*
X132908993Y-78665645D01*
X132919285Y-78669391D01*
X133123309Y-78724059D01*
X133134104Y-78725962D01*
X133344525Y-78744372D01*
X133355475Y-78744372D01*
X133565896Y-78725962D01*
X133576691Y-78724059D01*
X133780715Y-78669391D01*
X133791007Y-78665645D01*
X133982445Y-78576376D01*
X133991931Y-78570898D01*
X134035764Y-78540207D01*
X134044139Y-78529729D01*
X134037071Y-78516281D01*
X133362812Y-77842022D01*
X133348868Y-77834408D01*
X133347035Y-77834539D01*
X133340420Y-77838790D01*
X132662207Y-78517003D01*
X132655777Y-78528777D01*
X109125088Y-78528777D01*
X109162615Y-78478705D01*
X109213745Y-78342316D01*
X109220500Y-78280134D01*
X109220500Y-76834000D01*
X109240502Y-76765879D01*
X109294158Y-76719386D01*
X109346500Y-76708000D01*
X132106256Y-76708000D01*
X132174377Y-76728002D01*
X132220870Y-76781658D01*
X132230974Y-76851932D01*
X132220451Y-76887250D01*
X132154355Y-77028993D01*
X132150609Y-77039285D01*
X132095941Y-77243309D01*
X132094038Y-77254104D01*
X132075628Y-77464525D01*
X132075628Y-77475475D01*
X132094038Y-77685896D01*
X132095941Y-77696691D01*
X132150609Y-77900715D01*
X132154355Y-77911007D01*
X132243623Y-78102441D01*
X132249103Y-78111932D01*
X132279794Y-78155765D01*
X132290271Y-78164140D01*
X132303718Y-78157072D01*
X133260905Y-77199885D01*
X133323217Y-77165859D01*
X133394032Y-77170924D01*
X133439095Y-77199885D01*
X134397003Y-78157793D01*
X134408777Y-78164223D01*
X134420793Y-78154926D01*
X134450897Y-78111932D01*
X134456377Y-78102441D01*
X134545645Y-77911007D01*
X134549391Y-77900715D01*
X134604059Y-77696691D01*
X134605962Y-77685896D01*
X134624372Y-77475475D01*
X134624372Y-77464525D01*
X134605962Y-77254104D01*
X134604059Y-77243309D01*
X134549391Y-77039285D01*
X134545645Y-77028993D01*
X134479549Y-76887250D01*
X134468888Y-76817058D01*
X134497868Y-76752246D01*
X134557288Y-76713389D01*
X134593744Y-76708000D01*
X138380672Y-76708000D01*
X138400057Y-76709500D01*
X138414858Y-76711805D01*
X138414861Y-76711805D01*
X138423730Y-76713186D01*
X138434728Y-76711748D01*
X138463411Y-76711291D01*
X138566307Y-76721425D01*
X138590531Y-76726244D01*
X138709733Y-76762404D01*
X138732553Y-76771856D01*
X138842400Y-76830570D01*
X138862938Y-76844293D01*
X138959223Y-76923312D01*
X138976688Y-76940777D01*
X139055707Y-77037062D01*
X139069430Y-77057600D01*
X139128144Y-77167447D01*
X139137596Y-77190267D01*
X139173756Y-77309469D01*
X139178575Y-77333695D01*
X139188044Y-77429834D01*
X139187592Y-77445876D01*
X139188305Y-77445885D01*
X139188195Y-77454858D01*
X139186814Y-77463730D01*
X139187978Y-77472632D01*
X139187978Y-77472635D01*
X139190936Y-77495251D01*
X139192000Y-77511589D01*
X139192000Y-105360672D01*
X139190500Y-105380056D01*
X139186814Y-105403730D01*
X139188252Y-105414728D01*
X139188709Y-105443412D01*
X139178575Y-105546305D01*
X139173756Y-105570531D01*
X139137596Y-105689733D01*
X139128144Y-105712553D01*
X139069430Y-105822400D01*
X139055707Y-105842938D01*
X138976688Y-105939223D01*
X138959223Y-105956688D01*
X138862938Y-106035707D01*
X138842400Y-106049430D01*
X138732553Y-106108144D01*
X138709733Y-106117596D01*
X138590531Y-106153756D01*
X138566307Y-106158575D01*
X138470163Y-106168044D01*
X138454124Y-106167592D01*
X138454115Y-106168305D01*
X138445142Y-106168195D01*
X138436270Y-106166814D01*
X138427368Y-106167978D01*
X138427365Y-106167978D01*
X138404749Y-106170936D01*
X138388411Y-106172000D01*
X134746500Y-106172000D01*
X134678379Y-106151998D01*
X134631886Y-106098342D01*
X134620500Y-106046000D01*
X134620500Y-104599866D01*
X134613745Y-104537684D01*
X134562615Y-104401295D01*
X134475261Y-104284739D01*
X134358705Y-104197385D01*
X134222316Y-104146255D01*
X134160134Y-104139500D01*
X132539866Y-104139500D01*
X132477684Y-104146255D01*
X132341295Y-104197385D01*
X132224739Y-104284739D01*
X132137385Y-104401295D01*
X132086255Y-104537684D01*
X132079500Y-104599866D01*
X132079500Y-106046000D01*
X132059498Y-106114121D01*
X132005842Y-106160614D01*
X131953500Y-106172000D01*
X109193744Y-106172000D01*
X109125623Y-106151998D01*
X109079130Y-106098342D01*
X109069026Y-106028068D01*
X109079549Y-105992750D01*
X109145645Y-105851007D01*
X109149391Y-105840715D01*
X109204059Y-105636691D01*
X109205962Y-105625896D01*
X109224372Y-105415475D01*
X109224372Y-105404525D01*
X109205962Y-105194104D01*
X109204059Y-105183309D01*
X109149391Y-104979285D01*
X109145645Y-104968993D01*
X109056377Y-104777559D01*
X109050897Y-104768068D01*
X109020206Y-104724235D01*
X109009729Y-104715860D01*
X108996282Y-104722928D01*
X108039095Y-105680115D01*
X107976783Y-105714141D01*
X107905968Y-105709076D01*
X107860905Y-105680115D01*
X106902997Y-104722207D01*
X106891223Y-104715777D01*
X106879207Y-104725074D01*
X106849103Y-104768068D01*
X106843623Y-104777559D01*
X106754355Y-104968993D01*
X106750609Y-104979285D01*
X106695941Y-105183309D01*
X106694038Y-105194104D01*
X106675628Y-105404525D01*
X106675628Y-105415475D01*
X106694038Y-105625896D01*
X106695941Y-105636691D01*
X106750609Y-105840715D01*
X106754355Y-105851007D01*
X106820451Y-105992750D01*
X106831112Y-106062942D01*
X106802132Y-106127754D01*
X106742712Y-106166611D01*
X106706256Y-106172000D01*
X102919328Y-106172000D01*
X102899943Y-106170500D01*
X102885142Y-106168195D01*
X102885139Y-106168195D01*
X102876270Y-106166814D01*
X102865272Y-106168252D01*
X102836589Y-106168709D01*
X102733693Y-106158575D01*
X102709469Y-106153756D01*
X102590267Y-106117596D01*
X102567447Y-106108144D01*
X102457600Y-106049430D01*
X102437062Y-106035707D01*
X102340777Y-105956688D01*
X102323312Y-105939223D01*
X102244293Y-105842938D01*
X102230570Y-105822400D01*
X102171856Y-105712553D01*
X102162404Y-105689733D01*
X102126244Y-105570531D01*
X102121425Y-105546305D01*
X102111956Y-105450166D01*
X102112408Y-105434124D01*
X102111695Y-105434115D01*
X102111805Y-105425142D01*
X102113186Y-105416270D01*
X102111651Y-105404525D01*
X102109064Y-105384749D01*
X102108000Y-105368411D01*
X102108000Y-104350271D01*
X107255860Y-104350271D01*
X107262928Y-104363718D01*
X107937188Y-105037978D01*
X107951132Y-105045592D01*
X107952965Y-105045461D01*
X107959580Y-105041210D01*
X108637793Y-104362997D01*
X108644223Y-104351223D01*
X108634926Y-104339207D01*
X108591931Y-104309102D01*
X108582445Y-104303624D01*
X108391007Y-104214355D01*
X108380715Y-104210609D01*
X108176691Y-104155941D01*
X108165896Y-104154038D01*
X107955475Y-104135628D01*
X107944525Y-104135628D01*
X107734104Y-104154038D01*
X107723309Y-104155941D01*
X107519285Y-104210609D01*
X107508993Y-104214355D01*
X107317559Y-104303623D01*
X107308068Y-104309103D01*
X107264235Y-104339794D01*
X107255860Y-104350271D01*
X102108000Y-104350271D01*
X102108000Y-77519328D01*
X102109500Y-77499943D01*
X102111805Y-77485142D01*
X102111805Y-77485139D01*
X102113186Y-77476270D01*
X102111748Y-77465272D01*
X102111291Y-77436588D01*
X102121425Y-77333695D01*
X102126244Y-77309469D01*
X102162404Y-77190267D01*
X102171856Y-77167447D01*
X102230570Y-77057600D01*
X102244293Y-77037062D01*
X102323312Y-76940777D01*
X102340777Y-76923312D01*
X102437062Y-76844293D01*
X102457600Y-76830570D01*
X102567447Y-76771856D01*
X102590267Y-76762404D01*
X102709469Y-76726244D01*
X102733693Y-76721425D01*
X102829837Y-76711956D01*
X102845876Y-76712408D01*
X102845885Y-76711695D01*
X102854858Y-76711805D01*
X102863730Y-76713186D01*
X102872632Y-76712022D01*
X102872635Y-76712022D01*
X102895251Y-76709064D01*
X102911589Y-76708000D01*
X106553500Y-76708000D01*
X106621621Y-76728002D01*
G37*
%TD.AperFunction*%
%TD*%
M02*
