%TF.GenerationSoftware,KiCad,Pcbnew,(6.0.2)*%
%TF.CreationDate,2022-05-23T22:39:05-07:00*%
%TF.ProjectId,Compaq_Portable_III_Battery,436f6d70-6171-45f5-906f-727461626c65,rev?*%
%TF.SameCoordinates,Original*%
%TF.FileFunction,Legend,Top*%
%TF.FilePolarity,Positive*%
%FSLAX46Y46*%
G04 Gerber Fmt 4.6, Leading zero omitted, Abs format (unit mm)*
G04 Created by KiCad (PCBNEW (6.0.2)) date 2022-05-23 22:39:05*
%MOMM*%
%LPD*%
G01*
G04 APERTURE LIST*
%ADD10C,0.100000*%
%ADD11C,0.150000*%
%ADD12C,0.120000*%
G04 APERTURE END LIST*
D10*
X110402380Y-77619714D02*
X110364285Y-77657809D01*
X110250000Y-77695904D01*
X110173809Y-77695904D01*
X110059523Y-77657809D01*
X109983333Y-77581619D01*
X109945238Y-77505428D01*
X109907142Y-77353047D01*
X109907142Y-77238761D01*
X109945238Y-77086380D01*
X109983333Y-77010190D01*
X110059523Y-76934000D01*
X110173809Y-76895904D01*
X110250000Y-76895904D01*
X110364285Y-76934000D01*
X110402380Y-76972095D01*
X110859523Y-77695904D02*
X110783333Y-77657809D01*
X110745238Y-77619714D01*
X110707142Y-77543523D01*
X110707142Y-77314952D01*
X110745238Y-77238761D01*
X110783333Y-77200666D01*
X110859523Y-77162571D01*
X110973809Y-77162571D01*
X111050000Y-77200666D01*
X111088095Y-77238761D01*
X111126190Y-77314952D01*
X111126190Y-77543523D01*
X111088095Y-77619714D01*
X111050000Y-77657809D01*
X110973809Y-77695904D01*
X110859523Y-77695904D01*
X111469047Y-77695904D02*
X111469047Y-77162571D01*
X111469047Y-77238761D02*
X111507142Y-77200666D01*
X111583333Y-77162571D01*
X111697619Y-77162571D01*
X111773809Y-77200666D01*
X111811904Y-77276857D01*
X111811904Y-77695904D01*
X111811904Y-77276857D02*
X111850000Y-77200666D01*
X111926190Y-77162571D01*
X112040476Y-77162571D01*
X112116666Y-77200666D01*
X112154761Y-77276857D01*
X112154761Y-77695904D01*
X112535714Y-77162571D02*
X112535714Y-77962571D01*
X112535714Y-77200666D02*
X112611904Y-77162571D01*
X112764285Y-77162571D01*
X112840476Y-77200666D01*
X112878571Y-77238761D01*
X112916666Y-77314952D01*
X112916666Y-77543523D01*
X112878571Y-77619714D01*
X112840476Y-77657809D01*
X112764285Y-77695904D01*
X112611904Y-77695904D01*
X112535714Y-77657809D01*
X113602380Y-77695904D02*
X113602380Y-77276857D01*
X113564285Y-77200666D01*
X113488095Y-77162571D01*
X113335714Y-77162571D01*
X113259523Y-77200666D01*
X113602380Y-77657809D02*
X113526190Y-77695904D01*
X113335714Y-77695904D01*
X113259523Y-77657809D01*
X113221428Y-77581619D01*
X113221428Y-77505428D01*
X113259523Y-77429238D01*
X113335714Y-77391142D01*
X113526190Y-77391142D01*
X113602380Y-77353047D01*
X114326190Y-77162571D02*
X114326190Y-77962571D01*
X114326190Y-77657809D02*
X114250000Y-77695904D01*
X114097619Y-77695904D01*
X114021428Y-77657809D01*
X113983333Y-77619714D01*
X113945238Y-77543523D01*
X113945238Y-77314952D01*
X113983333Y-77238761D01*
X114021428Y-77200666D01*
X114097619Y-77162571D01*
X114250000Y-77162571D01*
X114326190Y-77200666D01*
X115316666Y-77695904D02*
X115316666Y-76895904D01*
X115621428Y-76895904D01*
X115697619Y-76934000D01*
X115735714Y-76972095D01*
X115773809Y-77048285D01*
X115773809Y-77162571D01*
X115735714Y-77238761D01*
X115697619Y-77276857D01*
X115621428Y-77314952D01*
X115316666Y-77314952D01*
X116230952Y-77695904D02*
X116154761Y-77657809D01*
X116116666Y-77619714D01*
X116078571Y-77543523D01*
X116078571Y-77314952D01*
X116116666Y-77238761D01*
X116154761Y-77200666D01*
X116230952Y-77162571D01*
X116345238Y-77162571D01*
X116421428Y-77200666D01*
X116459523Y-77238761D01*
X116497619Y-77314952D01*
X116497619Y-77543523D01*
X116459523Y-77619714D01*
X116421428Y-77657809D01*
X116345238Y-77695904D01*
X116230952Y-77695904D01*
X116840476Y-77695904D02*
X116840476Y-77162571D01*
X116840476Y-77314952D02*
X116878571Y-77238761D01*
X116916666Y-77200666D01*
X116992857Y-77162571D01*
X117069047Y-77162571D01*
X117221428Y-77162571D02*
X117526190Y-77162571D01*
X117335714Y-76895904D02*
X117335714Y-77581619D01*
X117373809Y-77657809D01*
X117450000Y-77695904D01*
X117526190Y-77695904D01*
X118135714Y-77695904D02*
X118135714Y-77276857D01*
X118097619Y-77200666D01*
X118021428Y-77162571D01*
X117869047Y-77162571D01*
X117792857Y-77200666D01*
X118135714Y-77657809D02*
X118059523Y-77695904D01*
X117869047Y-77695904D01*
X117792857Y-77657809D01*
X117754761Y-77581619D01*
X117754761Y-77505428D01*
X117792857Y-77429238D01*
X117869047Y-77391142D01*
X118059523Y-77391142D01*
X118135714Y-77353047D01*
X118516666Y-77695904D02*
X118516666Y-76895904D01*
X118516666Y-77200666D02*
X118592857Y-77162571D01*
X118745238Y-77162571D01*
X118821428Y-77200666D01*
X118859523Y-77238761D01*
X118897619Y-77314952D01*
X118897619Y-77543523D01*
X118859523Y-77619714D01*
X118821428Y-77657809D01*
X118745238Y-77695904D01*
X118592857Y-77695904D01*
X118516666Y-77657809D01*
X119354761Y-77695904D02*
X119278571Y-77657809D01*
X119240476Y-77581619D01*
X119240476Y-76895904D01*
X119964285Y-77657809D02*
X119888095Y-77695904D01*
X119735714Y-77695904D01*
X119659523Y-77657809D01*
X119621428Y-77581619D01*
X119621428Y-77276857D01*
X119659523Y-77200666D01*
X119735714Y-77162571D01*
X119888095Y-77162571D01*
X119964285Y-77200666D01*
X120002380Y-77276857D01*
X120002380Y-77353047D01*
X119621428Y-77429238D01*
X120954761Y-77695904D02*
X120954761Y-76895904D01*
X121335714Y-77695904D02*
X121335714Y-76895904D01*
X121716666Y-77695904D02*
X121716666Y-76895904D01*
X122973809Y-77276857D02*
X123088095Y-77314952D01*
X123126190Y-77353047D01*
X123164285Y-77429238D01*
X123164285Y-77543523D01*
X123126190Y-77619714D01*
X123088095Y-77657809D01*
X123011904Y-77695904D01*
X122707142Y-77695904D01*
X122707142Y-76895904D01*
X122973809Y-76895904D01*
X123050000Y-76934000D01*
X123088095Y-76972095D01*
X123126190Y-77048285D01*
X123126190Y-77124476D01*
X123088095Y-77200666D01*
X123050000Y-77238761D01*
X122973809Y-77276857D01*
X122707142Y-77276857D01*
X123850000Y-77695904D02*
X123850000Y-77276857D01*
X123811904Y-77200666D01*
X123735714Y-77162571D01*
X123583333Y-77162571D01*
X123507142Y-77200666D01*
X123850000Y-77657809D02*
X123773809Y-77695904D01*
X123583333Y-77695904D01*
X123507142Y-77657809D01*
X123469047Y-77581619D01*
X123469047Y-77505428D01*
X123507142Y-77429238D01*
X123583333Y-77391142D01*
X123773809Y-77391142D01*
X123850000Y-77353047D01*
X124116666Y-77162571D02*
X124421428Y-77162571D01*
X124230952Y-76895904D02*
X124230952Y-77581619D01*
X124269047Y-77657809D01*
X124345238Y-77695904D01*
X124421428Y-77695904D01*
X124573809Y-77162571D02*
X124878571Y-77162571D01*
X124688095Y-76895904D02*
X124688095Y-77581619D01*
X124726190Y-77657809D01*
X124802380Y-77695904D01*
X124878571Y-77695904D01*
X125450000Y-77657809D02*
X125373809Y-77695904D01*
X125221428Y-77695904D01*
X125145238Y-77657809D01*
X125107142Y-77581619D01*
X125107142Y-77276857D01*
X125145238Y-77200666D01*
X125221428Y-77162571D01*
X125373809Y-77162571D01*
X125450000Y-77200666D01*
X125488095Y-77276857D01*
X125488095Y-77353047D01*
X125107142Y-77429238D01*
X125830952Y-77695904D02*
X125830952Y-77162571D01*
X125830952Y-77314952D02*
X125869047Y-77238761D01*
X125907142Y-77200666D01*
X125983333Y-77162571D01*
X126059523Y-77162571D01*
X126250000Y-77162571D02*
X126440476Y-77695904D01*
X126630952Y-77162571D02*
X126440476Y-77695904D01*
X126364285Y-77886380D01*
X126326190Y-77924476D01*
X126250000Y-77962571D01*
X127545238Y-77695904D02*
X127545238Y-76895904D01*
X127811904Y-77467333D01*
X128078571Y-76895904D01*
X128078571Y-77695904D01*
X128573809Y-77695904D02*
X128497619Y-77657809D01*
X128459523Y-77619714D01*
X128421428Y-77543523D01*
X128421428Y-77314952D01*
X128459523Y-77238761D01*
X128497619Y-77200666D01*
X128573809Y-77162571D01*
X128688095Y-77162571D01*
X128764285Y-77200666D01*
X128802380Y-77238761D01*
X128840476Y-77314952D01*
X128840476Y-77543523D01*
X128802380Y-77619714D01*
X128764285Y-77657809D01*
X128688095Y-77695904D01*
X128573809Y-77695904D01*
X129526190Y-77695904D02*
X129526190Y-76895904D01*
X129526190Y-77657809D02*
X129450000Y-77695904D01*
X129297619Y-77695904D01*
X129221428Y-77657809D01*
X129183333Y-77619714D01*
X129145238Y-77543523D01*
X129145238Y-77314952D01*
X129183333Y-77238761D01*
X129221428Y-77200666D01*
X129297619Y-77162571D01*
X129450000Y-77162571D01*
X129526190Y-77200666D01*
X130250000Y-77162571D02*
X130250000Y-77695904D01*
X129907142Y-77162571D02*
X129907142Y-77581619D01*
X129945238Y-77657809D01*
X130021428Y-77695904D01*
X130135714Y-77695904D01*
X130211904Y-77657809D01*
X130250000Y-77619714D01*
X130745238Y-77695904D02*
X130669047Y-77657809D01*
X130630952Y-77581619D01*
X130630952Y-76895904D01*
X131354761Y-77657809D02*
X131278571Y-77695904D01*
X131126190Y-77695904D01*
X131050000Y-77657809D01*
X131011904Y-77581619D01*
X131011904Y-77276857D01*
X131050000Y-77200666D01*
X131126190Y-77162571D01*
X131278571Y-77162571D01*
X131354761Y-77200666D01*
X131392857Y-77276857D01*
X131392857Y-77353047D01*
X131011904Y-77429238D01*
X110707142Y-78907714D02*
X110669047Y-78945809D01*
X110554761Y-78983904D01*
X110478571Y-78983904D01*
X110364285Y-78945809D01*
X110288095Y-78869619D01*
X110250000Y-78793428D01*
X110211904Y-78641047D01*
X110211904Y-78526761D01*
X110250000Y-78374380D01*
X110288095Y-78298190D01*
X110364285Y-78222000D01*
X110478571Y-78183904D01*
X110554761Y-78183904D01*
X110669047Y-78222000D01*
X110707142Y-78260095D01*
X111164285Y-78983904D02*
X111088095Y-78945809D01*
X111050000Y-78907714D01*
X111011904Y-78831523D01*
X111011904Y-78602952D01*
X111050000Y-78526761D01*
X111088095Y-78488666D01*
X111164285Y-78450571D01*
X111278571Y-78450571D01*
X111354761Y-78488666D01*
X111392857Y-78526761D01*
X111430952Y-78602952D01*
X111430952Y-78831523D01*
X111392857Y-78907714D01*
X111354761Y-78945809D01*
X111278571Y-78983904D01*
X111164285Y-78983904D01*
X111773809Y-78450571D02*
X111773809Y-79250571D01*
X111773809Y-78488666D02*
X111850000Y-78450571D01*
X112002380Y-78450571D01*
X112078571Y-78488666D01*
X112116666Y-78526761D01*
X112154761Y-78602952D01*
X112154761Y-78831523D01*
X112116666Y-78907714D01*
X112078571Y-78945809D01*
X112002380Y-78983904D01*
X111850000Y-78983904D01*
X111773809Y-78945809D01*
X112421428Y-78450571D02*
X112611904Y-78983904D01*
X112802380Y-78450571D02*
X112611904Y-78983904D01*
X112535714Y-79174380D01*
X112497619Y-79212476D01*
X112421428Y-79250571D01*
X113107142Y-78983904D02*
X113107142Y-78450571D01*
X113107142Y-78602952D02*
X113145238Y-78526761D01*
X113183333Y-78488666D01*
X113259523Y-78450571D01*
X113335714Y-78450571D01*
X113602380Y-78983904D02*
X113602380Y-78450571D01*
X113602380Y-78183904D02*
X113564285Y-78222000D01*
X113602380Y-78260095D01*
X113640476Y-78222000D01*
X113602380Y-78183904D01*
X113602380Y-78260095D01*
X114326190Y-78450571D02*
X114326190Y-79098190D01*
X114288095Y-79174380D01*
X114250000Y-79212476D01*
X114173809Y-79250571D01*
X114059523Y-79250571D01*
X113983333Y-79212476D01*
X114326190Y-78945809D02*
X114250000Y-78983904D01*
X114097619Y-78983904D01*
X114021428Y-78945809D01*
X113983333Y-78907714D01*
X113945238Y-78831523D01*
X113945238Y-78602952D01*
X113983333Y-78526761D01*
X114021428Y-78488666D01*
X114097619Y-78450571D01*
X114250000Y-78450571D01*
X114326190Y-78488666D01*
X114707142Y-78983904D02*
X114707142Y-78183904D01*
X115050000Y-78983904D02*
X115050000Y-78564857D01*
X115011904Y-78488666D01*
X114935714Y-78450571D01*
X114821428Y-78450571D01*
X114745238Y-78488666D01*
X114707142Y-78526761D01*
X115316666Y-78450571D02*
X115621428Y-78450571D01*
X115430952Y-78183904D02*
X115430952Y-78869619D01*
X115469047Y-78945809D01*
X115545238Y-78983904D01*
X115621428Y-78983904D01*
X116726190Y-79288666D02*
X116688095Y-79250571D01*
X116611904Y-79136285D01*
X116573809Y-79060095D01*
X116535714Y-78945809D01*
X116497619Y-78755333D01*
X116497619Y-78602952D01*
X116535714Y-78412476D01*
X116573809Y-78298190D01*
X116611904Y-78222000D01*
X116688095Y-78107714D01*
X116726190Y-78069619D01*
X117488095Y-78907714D02*
X117450000Y-78945809D01*
X117335714Y-78983904D01*
X117259523Y-78983904D01*
X117145238Y-78945809D01*
X117069047Y-78869619D01*
X117030952Y-78793428D01*
X116992857Y-78641047D01*
X116992857Y-78526761D01*
X117030952Y-78374380D01*
X117069047Y-78298190D01*
X117145238Y-78222000D01*
X117259523Y-78183904D01*
X117335714Y-78183904D01*
X117450000Y-78222000D01*
X117488095Y-78260095D01*
X117754761Y-79288666D02*
X117792857Y-79250571D01*
X117869047Y-79136285D01*
X117907142Y-79060095D01*
X117945238Y-78945809D01*
X117983333Y-78755333D01*
X117983333Y-78602952D01*
X117945238Y-78412476D01*
X117907142Y-78298190D01*
X117869047Y-78222000D01*
X117792857Y-78107714D01*
X117754761Y-78069619D01*
X118935714Y-78260095D02*
X118973809Y-78222000D01*
X119050000Y-78183904D01*
X119240476Y-78183904D01*
X119316666Y-78222000D01*
X119354761Y-78260095D01*
X119392857Y-78336285D01*
X119392857Y-78412476D01*
X119354761Y-78526761D01*
X118897619Y-78983904D01*
X119392857Y-78983904D01*
X119888095Y-78183904D02*
X119964285Y-78183904D01*
X120040476Y-78222000D01*
X120078571Y-78260095D01*
X120116666Y-78336285D01*
X120154761Y-78488666D01*
X120154761Y-78679142D01*
X120116666Y-78831523D01*
X120078571Y-78907714D01*
X120040476Y-78945809D01*
X119964285Y-78983904D01*
X119888095Y-78983904D01*
X119811904Y-78945809D01*
X119773809Y-78907714D01*
X119735714Y-78831523D01*
X119697619Y-78679142D01*
X119697619Y-78488666D01*
X119735714Y-78336285D01*
X119773809Y-78260095D01*
X119811904Y-78222000D01*
X119888095Y-78183904D01*
X120459523Y-78260095D02*
X120497619Y-78222000D01*
X120573809Y-78183904D01*
X120764285Y-78183904D01*
X120840476Y-78222000D01*
X120878571Y-78260095D01*
X120916666Y-78336285D01*
X120916666Y-78412476D01*
X120878571Y-78526761D01*
X120421428Y-78983904D01*
X120916666Y-78983904D01*
X121221428Y-78260095D02*
X121259523Y-78222000D01*
X121335714Y-78183904D01*
X121526190Y-78183904D01*
X121602380Y-78222000D01*
X121640476Y-78260095D01*
X121678571Y-78336285D01*
X121678571Y-78412476D01*
X121640476Y-78526761D01*
X121183333Y-78983904D01*
X121678571Y-78983904D01*
X122592857Y-78945809D02*
X122707142Y-78983904D01*
X122897619Y-78983904D01*
X122973809Y-78945809D01*
X123011904Y-78907714D01*
X123050000Y-78831523D01*
X123050000Y-78755333D01*
X123011904Y-78679142D01*
X122973809Y-78641047D01*
X122897619Y-78602952D01*
X122745238Y-78564857D01*
X122669047Y-78526761D01*
X122630952Y-78488666D01*
X122592857Y-78412476D01*
X122592857Y-78336285D01*
X122630952Y-78260095D01*
X122669047Y-78222000D01*
X122745238Y-78183904D01*
X122935714Y-78183904D01*
X123050000Y-78222000D01*
X123697619Y-78945809D02*
X123621428Y-78983904D01*
X123469047Y-78983904D01*
X123392857Y-78945809D01*
X123354761Y-78869619D01*
X123354761Y-78564857D01*
X123392857Y-78488666D01*
X123469047Y-78450571D01*
X123621428Y-78450571D01*
X123697619Y-78488666D01*
X123735714Y-78564857D01*
X123735714Y-78641047D01*
X123354761Y-78717238D01*
X124078571Y-78983904D02*
X124078571Y-78450571D01*
X124078571Y-78602952D02*
X124116666Y-78526761D01*
X124154761Y-78488666D01*
X124230952Y-78450571D01*
X124307142Y-78450571D01*
X124916666Y-78450571D02*
X124916666Y-79098190D01*
X124878571Y-79174380D01*
X124840476Y-79212476D01*
X124764285Y-79250571D01*
X124649999Y-79250571D01*
X124573809Y-79212476D01*
X124916666Y-78945809D02*
X124840476Y-78983904D01*
X124688095Y-78983904D01*
X124611904Y-78945809D01*
X124573809Y-78907714D01*
X124535714Y-78831523D01*
X124535714Y-78602952D01*
X124573809Y-78526761D01*
X124611904Y-78488666D01*
X124688095Y-78450571D01*
X124840476Y-78450571D01*
X124916666Y-78488666D01*
X125602380Y-78945809D02*
X125526190Y-78983904D01*
X125373809Y-78983904D01*
X125297619Y-78945809D01*
X125259523Y-78869619D01*
X125259523Y-78564857D01*
X125297619Y-78488666D01*
X125373809Y-78450571D01*
X125526190Y-78450571D01*
X125602380Y-78488666D01*
X125640476Y-78564857D01*
X125640476Y-78641047D01*
X125259523Y-78717238D01*
X125907142Y-78450571D02*
X126097619Y-78983904D01*
X126288095Y-78450571D02*
X126097619Y-78983904D01*
X126021428Y-79174380D01*
X125983333Y-79212476D01*
X125907142Y-79250571D01*
X127202380Y-78983904D02*
X127202380Y-78183904D01*
X127659523Y-78983904D02*
X127316666Y-78526761D01*
X127659523Y-78183904D02*
X127202380Y-78641047D01*
X128002380Y-78983904D02*
X128002380Y-78450571D01*
X128002380Y-78183904D02*
X127964285Y-78222000D01*
X128002380Y-78260095D01*
X128040476Y-78222000D01*
X128002380Y-78183904D01*
X128002380Y-78260095D01*
X128345238Y-78945809D02*
X128421428Y-78983904D01*
X128573809Y-78983904D01*
X128650000Y-78945809D01*
X128688095Y-78869619D01*
X128688095Y-78831523D01*
X128650000Y-78755333D01*
X128573809Y-78717238D01*
X128459523Y-78717238D01*
X128383333Y-78679142D01*
X128345238Y-78602952D01*
X128345238Y-78564857D01*
X128383333Y-78488666D01*
X128459523Y-78450571D01*
X128573809Y-78450571D01*
X128650000Y-78488666D01*
X129335714Y-78945809D02*
X129259523Y-78983904D01*
X129107142Y-78983904D01*
X129030952Y-78945809D01*
X128992857Y-78869619D01*
X128992857Y-78564857D01*
X129030952Y-78488666D01*
X129107142Y-78450571D01*
X129259523Y-78450571D01*
X129335714Y-78488666D01*
X129373809Y-78564857D01*
X129373809Y-78641047D01*
X128992857Y-78717238D01*
X129830952Y-78983904D02*
X129754761Y-78945809D01*
X129716666Y-78869619D01*
X129716666Y-78183904D01*
X130440476Y-78945809D02*
X130364285Y-78983904D01*
X130211904Y-78983904D01*
X130135714Y-78945809D01*
X130097619Y-78869619D01*
X130097619Y-78564857D01*
X130135714Y-78488666D01*
X130211904Y-78450571D01*
X130364285Y-78450571D01*
X130440476Y-78488666D01*
X130478571Y-78564857D01*
X130478571Y-78641047D01*
X130097619Y-78717238D01*
X130745238Y-78450571D02*
X130935714Y-78983904D01*
X131126190Y-78450571D01*
D11*
%TO.C,J2*%
X135538184Y-77541428D02*
X136147708Y-77541428D01*
%TO.C,J1*%
X105058184Y-77541428D02*
X105667708Y-77541428D01*
X105315327Y-77922380D02*
X105410565Y-77160476D01*
%TO.C,J4*%
X135538184Y-105481428D02*
X136147708Y-105481428D01*
X135795327Y-105862380D02*
X135890565Y-105100476D01*
%TO.C,J3*%
X105058184Y-105481428D02*
X105667708Y-105481428D01*
%TO.C,BT1*%
X114784285Y-105338571D02*
X114927142Y-105386190D01*
X114974761Y-105433809D01*
X115022380Y-105529047D01*
X115022380Y-105671904D01*
X114974761Y-105767142D01*
X114927142Y-105814761D01*
X114831904Y-105862380D01*
X114450952Y-105862380D01*
X114450952Y-104862380D01*
X114784285Y-104862380D01*
X114879523Y-104910000D01*
X114927142Y-104957619D01*
X114974761Y-105052857D01*
X114974761Y-105148095D01*
X114927142Y-105243333D01*
X114879523Y-105290952D01*
X114784285Y-105338571D01*
X114450952Y-105338571D01*
X115308095Y-104862380D02*
X115879523Y-104862380D01*
X115593809Y-105862380D02*
X115593809Y-104862380D01*
X116736666Y-105862380D02*
X116165238Y-105862380D01*
X116450952Y-105862380D02*
X116450952Y-104862380D01*
X116355714Y-105005238D01*
X116260476Y-105100476D01*
X116165238Y-105148095D01*
X123290089Y-105767142D02*
X123241279Y-105814761D01*
X123106755Y-105862380D01*
X123021041Y-105862380D01*
X122898422Y-105814761D01*
X122824613Y-105719523D01*
X122793660Y-105624285D01*
X122774613Y-105433809D01*
X122792470Y-105290952D01*
X122859136Y-105100476D01*
X122913898Y-105005238D01*
X123011517Y-104910000D01*
X123146041Y-104862380D01*
X123231755Y-104862380D01*
X123354375Y-104910000D01*
X123391279Y-104957619D01*
X124178184Y-105862380D02*
X123937708Y-105386190D01*
X123663898Y-105862380D02*
X123788898Y-104862380D01*
X124131755Y-104862380D01*
X124211517Y-104910000D01*
X124248422Y-104957619D01*
X124279375Y-105052857D01*
X124261517Y-105195714D01*
X124206755Y-105290952D01*
X124157946Y-105338571D01*
X124066279Y-105386190D01*
X123723422Y-105386190D01*
X124634136Y-104957619D02*
X124682946Y-104910000D01*
X124774613Y-104862380D01*
X124988898Y-104862380D01*
X125068660Y-104910000D01*
X125105565Y-104957619D01*
X125136517Y-105052857D01*
X125124613Y-105148095D01*
X125063898Y-105290952D01*
X124478184Y-105862380D01*
X125035327Y-105862380D01*
X125890089Y-105195714D02*
X125806755Y-105862380D01*
X125723422Y-104814761D02*
X125419851Y-105529047D01*
X125976994Y-105529047D01*
X126317470Y-104862380D02*
X126917470Y-104862380D01*
X126406755Y-105862380D01*
X127174613Y-104862380D02*
X127774613Y-104862380D01*
X127263898Y-105862380D01*
X127992470Y-105862380D02*
X128117470Y-104862380D01*
X128506755Y-105862380D01*
X128631755Y-104862380D01*
X135509047Y-95956428D02*
X136270952Y-95956428D01*
X105029047Y-95956428D02*
X105790952Y-95956428D01*
X105410000Y-96337380D02*
X105410000Y-95575476D01*
D12*
%TO.C,J2*%
X134620000Y-78105000D02*
X133985000Y-78740000D01*
X132080000Y-78105000D02*
X132080000Y-76835000D01*
X133985000Y-76200000D02*
X134620000Y-76835000D01*
X133985000Y-78740000D02*
X132715000Y-78740000D01*
X132080000Y-76835000D02*
X132715000Y-76200000D01*
X132715000Y-78740000D02*
X132080000Y-78105000D01*
X132715000Y-76200000D02*
X133985000Y-76200000D01*
X134620000Y-76835000D02*
X134620000Y-78105000D01*
%TO.C,J1*%
X109220000Y-78740000D02*
X106680000Y-78740000D01*
X106680000Y-78740000D02*
X106680000Y-76200000D01*
X109220000Y-78740000D02*
X109220000Y-76200000D01*
X106680000Y-76200000D02*
X109220000Y-76200000D01*
%TO.C,J4*%
X134620000Y-106680000D02*
X134620000Y-104140000D01*
X132080000Y-106680000D02*
X132080000Y-104140000D01*
X132080000Y-104140000D02*
X134620000Y-104140000D01*
X134620000Y-106680000D02*
X132080000Y-106680000D01*
%TO.C,J3*%
X109220000Y-106045000D02*
X108585000Y-106680000D01*
X108585000Y-106680000D02*
X107315000Y-106680000D01*
X106680000Y-106045000D02*
X106680000Y-104775000D01*
X106680000Y-104775000D02*
X107315000Y-104140000D01*
X108585000Y-104140000D02*
X109220000Y-104775000D01*
X107315000Y-104140000D02*
X108585000Y-104140000D01*
X109220000Y-104775000D02*
X109220000Y-106045000D01*
X107315000Y-106680000D02*
X106680000Y-106045000D01*
%TO.C,BT1*%
X104150000Y-87940000D02*
X108150000Y-87940000D01*
X104150000Y-93440000D02*
X104150000Y-94940000D01*
X104150000Y-94940000D02*
X108150000Y-94940000D01*
X130650000Y-99490000D02*
X130800000Y-99490000D01*
X111400000Y-83390000D02*
X110650000Y-83390000D01*
X130650000Y-83390000D02*
X130799999Y-83390001D01*
X129900000Y-99490000D02*
X130650000Y-99490000D01*
X110650000Y-83390000D02*
X110500001Y-83390001D01*
X137150000Y-94940000D02*
X133150000Y-94940000D01*
X110650000Y-99490000D02*
X110500001Y-99489999D01*
X137150000Y-93440000D02*
X137150000Y-94940000D01*
X137150000Y-89440000D02*
X137150000Y-87940000D01*
X111400000Y-99490000D02*
X110650000Y-99490000D01*
X104150000Y-89440000D02*
X104150000Y-87940000D01*
X129900000Y-83390000D02*
X130650000Y-83390000D01*
X137150000Y-87940000D02*
X133150000Y-87940000D01*
X110500001Y-83390001D02*
G75*
G03*
X110500001Y-99489999I10150001J-8049999D01*
G01*
X130805060Y-99483612D02*
G75*
G03*
X130799999Y-83390001I-10155060J8043612D01*
G01*
D10*
X132900000Y-91440000D02*
G75*
G03*
X132900000Y-91440000I-12250000J0D01*
G01*
%TD*%
M02*
